<?xml version="1.0" standalone="no"?>
<!DOCTYPE svg PUBLIC "-//W3C//DTD SVG 20010904//EN"
 "http://www.w3.org/TR/2001/REC-SVG-20010904/DTD/svg10.dtd">
<svg version="1.0" xmlns="http://www.w3.org/2000/svg"
 width="168.000000pt" height="168.000000pt" viewBox="0 0 168.000000 168.000000"
 preserveAspectRatio="xMidYMid meet">
<metadata>
Created by potrace 1.11, written by Peter Selinger 2001-2013
</metadata>
<g transform="translate(0.000000,168.000000) scale(0.100000,-0.100000)"
fill="#000000" stroke="none">
<path d="M635 1648 c-120 -16 -224 -66 -329 -158 -56 -49 -156 -166 -156 -183
0 -3 21 4 48 16 61 28 206 30 297 3 91 -26 257 -118 385 -213 160 -120 215
-142 297 -122 47 12 102 58 127 108 10 18 20 63 23 99 12 148 -87 311 -236
386 -116 59 -302 86 -456 64z"/>
<path d="M1179 1599 c112 -75 214 -211 257 -346 24 -75 26 -214 4 -279 -29
-83 -85 -153 -152 -189 -25 -14 -33 -13 -104 16 -104 41 -179 86 -364 218
-310 223 -527 295 -669 225 -71 -36 -97 -78 -123 -200 -45 -221 2 -446 133
-640 16 -23 25 -45 21 -49 -4 -3 -2 -5 3 -4 6 2 35 -21 65 -51 74 -73 118
-110 130 -110 5 0 10 -5 10 -11 0 -5 4 -8 8 -5 5 3 25 -9 45 -25 20 -17 37
-27 37 -24 0 4 7 2 15 -5 8 -7 15 -9 15 -5 0 5 8 1 19 -9 24 -22 58 -28 65
-11 2 7 -3 19 -11 27 -15 11 -16 11 -10 -5 6 -15 4 -16 -14 -6 -24 12 -17 24
13 24 12 0 23 7 25 15 4 12 3 12 -5 1 -7 -9 -12 -10 -16 -2 -5 7 -13 8 -25 1
-12 -6 -22 -5 -31 3 -12 10 -12 9 -1 -5 23 -30 2 -20 -60 29 -195 153 -288
433 -206 624 25 58 74 116 121 144 42 24 49 26 83 14 81 -26 204 -94 333 -186
235 -165 291 -200 430 -261 41 -19 28 -15 119 -31 40 -7 88 -11 106 -8 52 8
76 -31 33 -54 -38 -20 -176 -23 -248 -5 -105 26 -274 116 -410 217 -135 101
-211 139 -270 134 -69 -6 -125 -45 -162 -115 -19 -37 -23 -59 -22 -126 0 -68
5 -91 32 -147 35 -75 118 -169 173 -198 20 -10 39 -28 42 -40 3 -13 10 -18 17
-14 9 6 9 10 -1 16 -8 5 -9 9 -3 9 6 0 13 -3 17 -6 9 -9 -24 -55 -34 -48 -17
10 -9 -13 11 -31 16 -15 23 -16 33 -6 9 10 9 11 -4 6 -19 -7 -35 10 -19 20 18
11 41 -16 34 -39 -6 -21 -6 -21 9 -1 8 11 13 23 11 27 -2 4 1 10 7 14 6 3 15
0 20 -7 7 -11 11 -10 24 6 16 19 16 19 5 -3 -7 -13 -17 -21 -25 -18 -7 2 -16
-2 -19 -10 -5 -12 0 -12 31 1 41 17 46 18 39 7 -3 -5 2 -9 10 -9 9 0 13 6 10
14 -4 9 -1 11 5 7 6 -4 16 0 21 7 7 10 8 8 3 -8 -6 -24 5 -25 42 -5 18 10 22
10 17 -1 -3 -10 5 -13 30 -13 24 1 32 4 25 12 -7 8 1 10 27 7 20 -2 42 1 49 7
9 8 15 8 20 0 3 -5 4 -11 1 -11 -12 -3 -26 -7 -33 -9 -5 -1 -11 -2 -15 -1 -4
0 -5 -6 -1 -15 5 -15 7 -15 15 0 5 9 13 14 19 11 11 -8 51 19 42 28 -3 4 -1 7
5 7 13 0 16 -13 5 -24 -11 -10 -12 -37 -2 -30 5 3 7 10 4 15 -4 5 1 9 9 9 8 0
14 6 12 13 -1 6 -1 9 1 4 3 -4 9 -4 15 -1 5 4 5 -4 -2 -16 -12 -22 -11 -22 10
-7 16 11 29 13 47 6 15 -6 31 -5 43 1 25 13 33 13 24 -2 -5 -9 -2 -9 9 1 16
12 22 8 18 -12 -1 -5 4 -5 10 -2 8 5 8 10 0 18 -18 18 -12 31 7 14 12 -11 22
-13 32 -7 11 7 11 10 3 11 -7 1 -18 2 -25 3 -6 0 -13 7 -16 14 -2 7 2 10 11 6
10 -4 15 2 15 20 0 26 -1 26 -17 7 -17 -19 -17 -19 -30 1 -7 11 -11 21 -9 21
84 41 185 126 255 215 19 24 28 30 34 20 6 -9 8 -7 7 7 0 11 3 29 7 39 6 14 5
17 -4 11 -12 -7 -30 9 -31 27 0 8 57 40 64 36 13 -8 76 106 81 147 2 11 8 49
15 83 63 347 -141 725 -472 876 -78 36 -80 33 -9 -15z m62 -1481 c9 -17 9 -23
0 -26 -6 -2 -8 -9 -5 -15 5 -9 3 -9 -6 0 -10 9 -16 8 -28 -3 -19 -19 -38 -12
-35 13 1 12 -4 20 -13 20 -10 0 -12 -7 -8 -21 4 -17 3 -18 -5 -6 -7 10 -11 11
-11 3 0 -9 -6 -7 -20 4 -11 9 -17 19 -15 21 3 3 11 0 19 -7 11 -9 15 -8 20 4
3 9 10 14 15 10 5 -3 13 0 16 6 4 5 13 8 21 5 7 -3 16 -1 19 4 10 16 24 11 36
-12z m-551 -1 c0 -5 -7 -7 -15 -3 -8 3 -15 0 -15 -6 0 -6 -3 -9 -6 -5 -3 3 -4
10 0 15 7 12 36 11 36 -1z m214 -42 c3 -8 1 -15 -4 -15 -6 0 -10 7 -10 15 0 8
2 15 4 15 2 0 6 -7 10 -15z"/>
<path d="M1221 123 c-1 -7 -12 -10 -28 -8 -16 2 -22 2 -15 -1 10 -5 10 -9 1
-20 -19 -23 -1 -29 22 -8 12 10 23 18 25 17 6 -4 6 6 1 20 -4 9 -6 9 -6 0z
m-11 -17 c0 -2 -8 -10 -17 -17 -16 -13 -17 -12 -4 4 13 16 21 21 21 13z"/>
<path d="M278 433 c7 -3 16 -2 19 1 4 3 -2 6 -13 5 -11 0 -14 -3 -6 -6z"/>
<path d="M1259 153 c-13 -16 -12 -17 4 -4 9 7 17 15 17 17 0 8 -8 3 -21 -13z"/>
<path d="M373 145 c0 -8 4 -12 9 -9 5 3 6 10 3 15 -9 13 -12 11 -12 -6z"/>
<path d="M310 146 c0 -2 7 -7 16 -10 8 -3 12 -2 9 4 -6 10 -25 14 -25 6z"/>
<path d="M430 144 c0 -5 5 -15 12 -22 9 -9 9 -12 0 -12 -6 0 -16 8 -21 18 -6
10 -11 12 -11 4 0 -7 -5 -10 -12 -6 -6 4 -8 3 -4 -4 3 -6 2 -13 -4 -17 -5 -3
-10 -14 -9 -23 0 -13 2 -12 9 4 10 26 26 38 34 25 3 -5 -1 -11 -9 -15 -8 -3
-15 -11 -14 -18 0 -10 2 -10 6 0 2 6 9 12 14 12 6 0 7 -4 4 -10 -3 -5 -1 -10
5 -10 7 0 9 7 6 16 -5 12 -2 15 10 10 8 -3 18 -6 21 -6 3 0 0 -7 -7 -15 -7 -8
-11 -15 -9 -16 33 -6 38 -6 32 4 -4 6 0 8 10 4 10 -4 21 1 27 11 10 15 11 14
7 -6 -3 -12 -1 -20 4 -16 20 12 50 13 46 1 -2 -7 -13 -11 -23 -9 -15 2 -16 1
-4 -7 9 -6 18 -6 26 0 6 5 20 7 30 3 14 -4 15 -3 6 4 -8 5 -13 13 -13 18 1 5
-11 9 -26 9 -16 0 -34 7 -41 17 -7 10 -17 16 -22 13 -5 -3 -11 -1 -15 4 -3 6
-12 8 -19 5 -8 -3 -21 5 -30 18 -9 12 -16 18 -16 12z m84 -47 c4 4 4 -1 0 -12
-5 -12 -9 -14 -12 -6 -3 9 -10 7 -25 -6 -13 -12 -17 -13 -11 -3 5 8 9 18 10
23 1 4 2 10 3 13 0 4 7 1 14 -5 8 -6 17 -8 21 -4z"/>
<path d="M1335 140 c3 -5 8 -10 11 -10 2 0 4 5 4 10 0 6 -5 10 -11 10 -5 0 -7
-4 -4 -10z"/>
<path d="M1386 125 c-11 -8 -15 -15 -9 -15 6 0 16 7 23 15 16 19 11 19 -14 0z"/>
<path d="M177 115 c-4 -8 -3 -16 1 -19 4 -3 9 4 9 15 2 23 -3 25 -10 4z"/>
<path d="M250 121 c0 -6 4 -13 10 -16 6 -3 7 1 4 9 -7 18 -14 21 -14 7z"/>
<path d="M313 115 c0 -8 4 -12 9 -9 5 3 6 10 3 15 -9 13 -12 11 -12 -6z"/>
<path d="M355 121 c3 -5 0 -11 -7 -13 -14 -5 -20 -38 -6 -38 6 0 7 7 4 16 -5
12 -2 15 9 10 9 -3 14 -2 10 3 -3 5 0 11 7 13 7 3 5 7 -6 11 -9 4 -15 3 -11
-2z"/>
<path d="M600 115 c7 -9 15 -13 17 -11 7 7 -7 26 -19 26 -6 0 -6 -6 2 -15z"/>
<path d="M1320 114 c0 -8 -4 -12 -10 -9 -15 9 -12 -4 4 -20 11 -11 13 -9 14
16 0 16 -1 29 -4 29 -2 0 -4 -7 -4 -16z"/>
<path d="M1446 122 c-3 -5 1 -9 9 -9 8 0 12 4 9 9 -3 4 -7 8 -9 8 -2 0 -6 -4
-9 -8z"/>
<path d="M1348 93 c7 -3 16 -2 19 1 4 3 -2 6 -13 5 -11 0 -14 -3 -6 -6z"/>
<path d="M1435 90 c-4 -6 -11 -7 -17 -4 -7 4 -8 2 -4 -5 6 -9 11 -9 22 0 14
11 18 19 10 19 -3 0 -8 -5 -11 -10z"/>
<path d="M236 73 c-6 -14 -5 -15 5 -6 7 7 10 15 7 18 -3 3 -9 -2 -12 -12z"/>
<path d="M265 81 c3 -3 17 -6 31 -7 13 0 22 2 19 5 -3 3 -17 6 -31 7 -13 0
-22 -2 -19 -5z"/>
<path d="M375 49 c-4 -6 -5 -12 -2 -15 2 -3 7 2 10 11 7 17 1 20 -8 4z"/>
</g>
</svg>
